<svg xmlns="http://www.w3.org/2000/svg" xmlns:xlink="http://www.w3.org/1999/xlink" viewBox="0 0 56 60" version="1.1" x="0px" y="0px"><g stroke="none" stroke-width="1" fill="none" fill-rule="evenodd"><g fill-rule="nonzero" fill="red"><path d="M39,7 C36.51855,7 35,7.97119 35,8.5 C35,9.02881 36.51855,10 39,10 C41.48145,10 43,9.02881 43,8.5 C43,7.97119 41.48145,7 39,7 Z"/><path d="M18,18 C15.51855,18 14,18.97119 14,19.5 C14,20.02881 15.51855,21 18,21 C20.48145,21 22,20.02881 22,19.5 C22,18.97119 20.48145,18 18,18 Z"/><path d="M28.5,12.5 C26.01855,12.5 24.5,13.47119 24.5,14 C24.5,14.52881 26.01855,15.5 28.5,15.5 C30.98145,15.5 32.5,14.52881 32.5,14 C32.5,13.47119 30.98145,12.5 28.5,12.5 Z"/><polygon points="21 29.611 21 47.362 56 29.389 56 11.638"/><path d="M35.99561,0.12646 L1.17188,18.00879 L20.0044,27.87354 L54.82813,9.99121 L35.99561,0.12646 Z M18,23 C14.57959,23 12,21.49512 12,19.5 C12,17.50488 14.57959,16 18,16 C21.42041,16 24,17.50488 24,19.5 C24,21.49512 21.42041,23 18,23 Z M28.5,17.5 C25.07959,17.5 22.5,15.99512 22.5,14 C22.5,12.00488 25.07959,10.5 28.5,10.5 C31.92041,10.5 34.5,12.00488 34.5,14 C34.5,15.99512 31.92041,17.5 28.5,17.5 Z M39,12 C35.57959,12 33,10.49512 33,8.5 C33,6.50488 35.57959,5 39,5 C42.42041,5 45,6.50488 45,8.5 C45,10.49512 42.42041,12 39,12 Z"/><polygon points="0 37.395 19 47.347 19 29.605 0 19.653"/></g></g></svg>
